<svg version="1.1" id="Layer_1" xmlns="http://www.w3.org/2000/svg"
    xmlns:xlink="http://www.w3.org/1999/xlink" x="0px" y="0px"
    viewBox="0 0 488.2 488.2" style="enable-background:new 0 0 488.2 488.2;" xml:space="preserve"
>
    <circle style="fill:#000000;" cx="244.1" cy="244.2" r="244"/>
    <circle style="fill:#ffffff;" cx="244.1" cy="244.2" r="104.8"/>
    <circle style="fill:#000000;" cx="244.1" cy="244.2" r="29.6"/>
    <g>
        <path style="fill:#ffffff;" d="M244.1,448.2c-112.8,0-204-91.2-204-204c0-4,3.2-8,8-8c4,0,8,3.2,8,8c-0.8,104,84,188.8,188,188.8
            c4,0,8,3.2,8,8C252.1,445,248.1,448.2,244.1,448.2z"
        />
        <path style="fill:#ffffff;" d="M440.9,252.2c-4,0-8-3.2-8-8c0-104-84.8-188.8-188.8-188.8c-4,0-8-3.2-8-8c0-4,3.2-8,8-8
            c112.8,0,204,92,204,204C448.1,248.2,444.9,252.2,440.9,252.2z"
        />
        <path style="fill:#ffffff;" d="M244.1,401c-86.4,0-156.8-70.4-156.8-156.8c0-4,3.2-8,8-8c4,0,8,3.2,8,8
            c0,77.6,63.2,141.6,141.6,141.6c4,0,8,3.2,8,8C252.1,397.8,248.1,401,244.1,401z"
        />
        <path style="fill:#ffffff;" d="M392.9,252.2c-4,0-8-3.2-8-8c0-77.6-63.2-141.6-141.6-141.6c-4,0-8-3.2-8-8c0-4,3.2-8,8-8
            c86.4,0,156.8,70.4,156.8,156.8C400.9,248.2,397.7,252.2,392.9,252.2z"
        />
    </g>
</svg>
